<svg xmlns="http://www.w3.org/2000/svg" viewBox="0 0 512 512"><defs><linearGradient id="b" x1="0" y1="0" x2="1" y2="1"><stop stop-color="#0877e8"/><stop offset="1" stop-color="#10264b"/></linearGradient><linearGradient id="f" x1="0" y1="0" x2="0" y2="1"><stop stop-color="#fff36b"/><stop offset=".45" stop-color="#ff9d1d"/><stop offset="1" stop-color="#f04452"/></linearGradient></defs><rect width="512" height="512" rx="108" fill="url(#b)"/><g transform="rotate(42 256 250)"><path d="M256 55c-61 58-91 128-91 211v75h182v-75c0-83-30-153-91-211z" fill="#fff"/><path d="M256 55c36 35 64 82 78 136H256z" fill="#dfeaff"/><circle cx="256" cy="207" r="48" fill="#10264b"/><circle cx="256" cy="207" r="34" fill="#25a9ff"/><path d="M165 271l-65 83 65-17zm182 0 65 83-65-17z" fill="#25a9ff"/><path d="M218 341h76l-8 43h-60z" fill="#1b3156"/><path d="M229 384c2 45 12 69 27 88 15-19 25-43 27-88z" fill="url(#f)"/></g><g fill="#fff"><path d="M105 112l7 18 18 7-18 7-7 18-7-18-18-7 18-7z"/><path d="M405 344l5 13 13 5-13 5-5 13-5-13-13-5 13-5z"/></g></svg>